<svg width="40" height="40" viewBox="0 0 40 40" fill="none" xmlns="http://www.w3.org/2000/svg">
<g id="bi:clipboard-check">
<g id="Group">
<path id="Vector" fill-rule="evenodd" clip-rule="evenodd" d="M25.0128 18.6122C25.0885 18.6877 25.1485 18.7774 25.1895 18.8761C25.2304 18.9748 25.2515 19.0806 25.2515 19.1875C25.2515 19.2944 25.2304 19.4002 25.1895 19.4989C25.1485 19.5976 25.0885 19.6873 25.0128 19.7627L20.1378 24.6377C20.0623 24.7134 19.9727 24.7734 19.874 24.8144C19.7752 24.8554 19.6694 24.8764 19.5626 24.8764C19.4557 24.8764 19.3499 24.8554 19.2511 24.8144C19.1524 24.7734 19.0628 24.7134 18.9873 24.6377L16.5498 22.2002C16.4743 22.1247 16.4143 22.035 16.3734 21.9363C16.3326 21.8376 16.3115 21.7318 16.3115 21.625C16.3115 21.5182 16.3326 21.4124 16.3734 21.3137C16.4143 21.215 16.4743 21.1253 16.5498 21.0497C16.7024 20.8972 16.9093 20.8115 17.1251 20.8115C17.2319 20.8115 17.3377 20.8325 17.4364 20.8734C17.5351 20.9143 17.6248 20.9742 17.7003 21.0497L19.5626 22.9136L23.8623 18.6122C23.9378 18.5366 24.0274 18.4765 24.1261 18.4356C24.2249 18.3946 24.3307 18.3735 24.4376 18.3735C24.5444 18.3735 24.6502 18.3946 24.749 18.4356C24.8477 18.4765 24.9373 18.5366 25.0128 18.6122Z" fill="#5D5A6D"/>
<path id="Vector_2" d="M13.875 9.4375H12.25C11.388 9.4375 10.5614 9.77991 9.9519 10.3894C9.34241 10.9989 9 11.8255 9 12.6875V29.75C9 30.612 9.34241 31.4386 9.9519 32.0481C10.5614 32.6576 11.388 33 12.25 33H28.5C29.362 33 30.1886 32.6576 30.7981 32.0481C31.4076 31.4386 31.75 30.612 31.75 29.75V12.6875C31.75 11.8255 31.4076 10.9989 30.7981 10.3894C30.1886 9.77991 29.362 9.4375 28.5 9.4375H26.875V11.0625H28.5C28.931 11.0625 29.3443 11.2337 29.649 11.5385C29.9538 11.8432 30.125 12.2565 30.125 12.6875V29.75C30.125 30.181 29.9538 30.5943 29.649 30.899C29.3443 31.2038 28.931 31.375 28.5 31.375H12.25C11.819 31.375 11.4057 31.2038 11.101 30.899C10.7962 30.5943 10.625 30.181 10.625 29.75V12.6875C10.625 12.2565 10.7962 11.8432 11.101 11.5385C11.4057 11.2337 11.819 11.0625 12.25 11.0625H13.875V9.4375Z" fill="#5D5A6D"/>
<path id="Vector_3" d="M22.8125 8.625C23.028 8.625 23.2347 8.7106 23.387 8.86298C23.5394 9.01535 23.625 9.22201 23.625 9.4375V11.0625C23.625 11.278 23.5394 11.4847 23.387 11.637C23.2347 11.7894 23.028 11.875 22.8125 11.875H17.9375C17.722 11.875 17.5153 11.7894 17.363 11.637C17.2106 11.4847 17.125 11.278 17.125 11.0625V9.4375C17.125 9.22201 17.2106 9.01535 17.363 8.86298C17.5153 8.7106 17.722 8.625 17.9375 8.625H22.8125ZM17.9375 7C17.291 7 16.671 7.25681 16.2139 7.71393C15.7568 8.17105 15.5 8.79103 15.5 9.4375V11.0625C15.5 11.709 15.7568 12.329 16.2139 12.7861C16.671 13.2432 17.291 13.5 17.9375 13.5H22.8125C23.459 13.5 24.079 13.2432 24.5361 12.7861C24.9932 12.329 25.25 11.709 25.25 11.0625V9.4375C25.25 8.79103 24.9932 8.17105 24.5361 7.71393C24.079 7.25681 23.459 7 22.8125 7H17.9375Z" fill="#5D5A6D"/>
</g>
</g>
</svg>
