<svg width="24" height="28" viewBox="0 0 24 28" fill="none" xmlns="http://www.w3.org/2000/svg">
<g id="01 align center">
<path id="Vector" d="M20.8887 0.666748H4.22201C3.33795 0.666748 2.4901 1.01794 1.86498 1.64306C1.23986 2.26818 0.888672 3.11603 0.888672 4.00008V24.0001C0.888672 24.8841 1.23986 25.732 1.86498 26.3571C2.4901 26.9822 3.33795 27.3334 4.22201 27.3334H23.1109V2.88897C23.1109 2.2996 22.8768 1.73437 22.46 1.31762C22.0433 0.900874 21.478 0.666748 20.8887 0.666748V0.666748ZM20.8887 20.6668H7.55534V2.88897H20.8887V20.6668ZM4.22201 2.88897H5.33312V20.6668H4.24089C3.85504 20.6701 3.4727 20.7404 3.11089 20.8745V4.00008C3.11089 3.7054 3.22796 3.42278 3.43633 3.21441C3.64471 3.00603 3.92732 2.88897 4.22201 2.88897ZM4.22201 25.1112C3.92885 25.1112 3.64758 24.9954 3.43946 24.7889C3.23134 24.5825 3.11324 24.3021 3.11089 24.009H3.12756C3.12639 23.8623 3.15426 23.7169 3.20957 23.581C3.26489 23.4452 3.34655 23.3217 3.44984 23.2175C3.55313 23.1134 3.67602 23.0308 3.81141 22.9744C3.94679 22.918 4.09201 22.889 4.23867 22.889H20.8887V25.1112H4.22201Z" fill="#5D5A6D"/>
</g>
</svg>
