<svg width="40" height="40" viewBox="0 0 40 40" fill="none" xmlns="http://www.w3.org/2000/svg">
<g id="Icons">
<g id="Vector">
<path d="M33.3078 19.1773C33.1472 16.5799 32.2301 14.0863 30.6695 12.0039C29.1089 9.9214 26.973 8.34116 24.5251 7.45793C22.0773 6.57471 19.4244 6.42712 16.8937 7.03336C14.363 7.6396 12.065 8.97316 10.283 10.8697C8.50099 12.7661 7.31293 15.1427 6.86527 17.7062C6.41761 20.2697 6.72991 22.9082 7.76368 25.2964C8.79744 27.6846 10.5075 29.7181 12.683 31.1462C14.8585 32.5743 17.4043 33.3345 20.0066 33.3332H27.7578C29.2293 33.3317 30.6401 32.7465 31.6806 31.706C32.7211 30.6655 33.3063 29.2547 33.3078 27.7832V19.1773ZM31.0878 27.7832C31.0878 28.6663 30.7369 29.5133 30.1124 30.1378C29.4879 30.7623 28.6409 31.1132 27.7578 31.1132H20.0066C18.4404 31.1125 16.8918 30.7816 15.462 30.1423C14.0321 29.5029 12.7531 28.5693 11.7083 27.4024C10.6584 26.2361 9.87003 24.8588 9.39602 23.3629C8.92201 21.867 8.77332 20.287 8.95991 18.7289C9.25454 16.2713 10.3587 13.9816 12.0984 12.2209C13.838 10.4601 16.1142 9.32841 18.5681 9.00417C19.0467 8.94417 19.5287 8.91377 20.0111 8.91315C22.5979 8.90609 25.1047 9.80992 27.0918 11.4661C28.2523 12.4307 29.2049 13.6208 29.8918 14.9645C30.5787 16.3081 30.9856 17.7772 31.0878 19.2828V27.7832Z" fill="#590385"/>
<path d="M15.5478 16.6828H19.9878C20.2822 16.6828 20.5645 16.5658 20.7727 16.3577C20.9808 16.1495 21.0978 15.8672 21.0978 15.5728C21.0978 15.2784 20.9808 14.996 20.7727 14.7879C20.5645 14.5797 20.2822 14.4628 19.9878 14.4628H15.5478C15.2534 14.4628 14.971 14.5797 14.7629 14.7879C14.5547 14.996 14.4378 15.2784 14.4378 15.5728C14.4378 15.8672 14.5547 16.1495 14.7629 16.3577C14.971 16.5658 15.2534 16.6828 15.5478 16.6828Z" fill="#590385"/>
<path d="M24.4278 18.9031H15.5478C15.2534 18.9031 14.971 19.0201 14.7629 19.2282C14.5547 19.4364 14.4378 19.7187 14.4378 20.0131C14.4378 20.3075 14.5547 20.5899 14.7629 20.798C14.971 21.0062 15.2534 21.1231 15.5478 21.1231H24.4278C24.7222 21.1231 25.0045 21.0062 25.2127 20.798C25.4208 20.5899 25.5378 20.3075 25.5378 20.0131C25.5378 19.7187 25.4208 19.4364 25.2127 19.2282C25.0045 19.0201 24.7222 18.9031 24.4278 18.9031Z" fill="#590385"/>
<path d="M24.4278 23.343H15.5478C15.2534 23.343 14.971 23.4599 14.7629 23.6681C14.5547 23.8762 14.4378 24.1586 14.4378 24.453C14.4378 24.7474 14.5547 25.0297 14.7629 25.2379C14.971 25.446 15.2534 25.563 15.5478 25.563H24.4278C24.7222 25.563 25.0045 25.446 25.2127 25.2379C25.4208 25.0297 25.5378 24.7474 25.5378 24.453C25.5378 24.1586 25.4208 23.8762 25.2127 23.6681C25.0045 23.4599 24.7222 23.343 24.4278 23.343Z" fill="#590385"/>
</g>
</g>
</svg>
