<svg width="18" height="18" viewBox="0 0 18 18" fill="none" xmlns="http://www.w3.org/2000/svg">
<g id="Icons">
<g id="Vector">
<path d="M14.9886 8.62987C14.9163 7.46105 14.5036 6.33892 13.8014 5.40181C13.0991 4.46471 12.1379 3.75359 11.0364 3.35614C9.93484 2.95869 8.74107 2.89228 7.60224 3.16508C6.46341 3.43789 5.42931 4.038 4.62741 4.89142C3.82552 5.74484 3.29089 6.81427 3.08945 7.96786C2.888 9.12146 3.02853 10.3088 3.49373 11.3835C3.95892 12.4582 4.72844 13.3732 5.70741 14.0159C6.68638 14.6585 7.83201 15.0006 9.00306 15H12.4911C13.1532 14.9993 13.7881 14.736 14.2563 14.2678C14.7246 13.7995 14.9879 13.1647 14.9886 12.5025V8.62987ZM13.9896 12.5025C13.9896 12.8999 13.8317 13.2811 13.5507 13.5621C13.2696 13.8431 12.8885 14.001 12.4911 14.001H9.00306C8.29823 14.0007 7.60138 13.8518 6.95795 13.5641C6.31452 13.2764 5.73896 12.8563 5.2688 12.3312C4.79635 11.8063 4.44159 11.1865 4.22828 10.5134C4.01498 9.84021 3.94807 9.12922 4.03203 8.42807C4.16462 7.32215 4.6615 6.2918 5.44434 5.49946C6.22718 4.70712 7.25146 4.19786 8.35571 4.05195C8.57111 4.02495 8.78797 4.01127 9.00506 4.01099C10.1691 4.00781 11.2972 4.41454 12.1914 5.15984C12.7136 5.59388 13.1423 6.12945 13.4514 6.73408C13.7605 7.33871 13.9436 7.99982 13.9896 8.67732V12.5025Z" fill="#5D5A6D"/>
<path d="M6.99657 7.50732H8.99457C9.12705 7.50732 9.2541 7.45469 9.34777 7.36102C9.44144 7.26734 9.49407 7.1403 9.49407 7.00782C9.49407 6.87534 9.44144 6.74829 9.34777 6.65462C9.2541 6.56095 9.12705 6.50832 8.99457 6.50832H6.99657C6.86409 6.50832 6.73704 6.56095 6.64337 6.65462C6.54969 6.74829 6.49707 6.87534 6.49707 7.00782C6.49707 7.1403 6.54969 7.26734 6.64337 7.36102C6.73704 7.45469 6.86409 7.50732 6.99657 7.50732Z" fill="#5D5A6D"/>
<path d="M10.9926 8.50648H6.99657C6.86409 8.50648 6.73704 8.55911 6.64337 8.65278C6.54969 8.74646 6.49707 8.87351 6.49707 9.00599C6.49707 9.13846 6.54969 9.26551 6.64337 9.35919C6.73704 9.45286 6.86409 9.50549 6.99657 9.50549H10.9926C11.125 9.50549 11.2521 9.45286 11.3458 9.35919C11.4394 9.26551 11.4921 9.13846 11.4921 9.00599C11.4921 8.87351 11.4394 8.74646 11.3458 8.65278C11.2521 8.55911 11.125 8.50648 10.9926 8.50648Z" fill="#5D5A6D"/>
<path d="M10.9926 10.5044H6.99657C6.86409 10.5044 6.73704 10.557 6.64337 10.6507C6.54969 10.7444 6.49707 10.8714 6.49707 11.0039C6.49707 11.1364 6.54969 11.2634 6.64337 11.3571C6.73704 11.4508 6.86409 11.5034 6.99657 11.5034H10.9926C11.125 11.5034 11.2521 11.4508 11.3458 11.3571C11.4394 11.2634 11.4921 11.1364 11.4921 11.0039C11.4921 10.8714 11.4394 10.7444 11.3458 10.6507C11.2521 10.557 11.125 10.5044 10.9926 10.5044Z" fill="#5D5A6D"/>
</g>
</g>
</svg>
