<svg width="24" height="24" viewBox="0 0 24 24" fill="none" xmlns="http://www.w3.org/2000/svg">
<g id="Filter icon">
<g id="Vector">
<path d="M11.2873 5.83349C11.1442 5.30701 10.8319 4.84224 10.3984 4.51088C9.96501 4.17953 9.43459 4 8.889 4C8.34341 4 7.81299 4.17953 7.37955 4.51088C6.94612 4.84224 6.63376 5.30701 6.49067 5.83349H4V7.16682H6.49067C6.63376 7.6933 6.94612 8.15807 7.37955 8.48943C7.81299 8.82078 8.34341 9.00031 8.889 9.00031C9.43459 9.00031 9.96501 8.82078 10.3984 8.48943C10.8319 8.15807 11.1442 7.6933 11.2873 7.16682H20V5.83349H11.2873ZM8.88867 7.66681C8.65792 7.66681 8.43236 7.59839 8.2405 7.47019C8.04864 7.342 7.89911 7.15979 7.81081 6.94661C7.72251 6.73344 7.6994 6.49886 7.74442 6.27255C7.78943 6.04624 7.90055 5.83836 8.06371 5.6752C8.22687 5.51204 8.43475 5.40093 8.66106 5.35591C8.88737 5.3109 9.12195 5.334 9.33513 5.4223C9.54831 5.5106 9.73052 5.66014 9.85871 5.85199C9.98691 6.04385 10.0553 6.26941 10.0553 6.50015C10.0548 6.80941 9.93172 7.10584 9.71304 7.32452C9.49436 7.5432 9.19792 7.66628 8.88867 7.66681Z" fill="#5D5A6D"/>
<path d="M15.1113 9.49992C14.5663 9.50187 14.0369 9.68212 13.6039 10.0131C13.1709 10.3442 12.8581 10.8078 12.7133 11.3332H4V12.6666H12.7133C12.8562 13.1932 13.1684 13.6581 13.6018 13.9896C14.0352 14.3211 14.5657 14.5007 15.1113 14.5007C15.657 14.5007 16.1874 14.3211 16.6208 13.9896C17.0542 13.6581 17.3665 13.1932 17.5093 12.6666H20V11.3332H17.5093C17.3645 10.8078 17.0518 10.3442 16.6188 10.0131C16.1858 9.68212 15.6564 9.50187 15.1113 9.49992ZM15.1113 13.1666C14.8806 13.1666 14.655 13.0981 14.4632 12.9699C14.2713 12.8417 14.1218 12.6595 14.0335 12.4464C13.9452 12.2332 13.9221 11.9986 13.9671 11.7723C14.0121 11.546 14.1232 11.3381 14.2864 11.1749C14.4495 11.0118 14.6574 10.9007 14.8837 10.8557C15.11 10.8106 15.3446 10.8337 15.5578 10.922C15.771 11.0103 15.9532 11.1599 16.0814 11.3517C16.2096 11.5436 16.278 11.7692 16.278 11.9999C16.2776 12.3092 16.1546 12.6057 15.9359 12.8245C15.7172 13.0432 15.4206 13.1662 15.1113 13.1666Z" fill="#5D5A6D"/>
<path d="M8.88867 14.9999C8.34329 15.0014 7.81342 15.1814 7.38003 15.5125C6.94663 15.8436 6.63356 16.3074 6.48867 16.8332H4V18.1665H6.49067C6.63376 18.693 6.94612 19.1578 7.37955 19.4891C7.81299 19.8205 8.34341 20 8.889 20C9.43459 20 9.96501 19.8205 10.3984 19.4891C10.8319 19.1578 11.1442 18.693 11.2873 18.1665H20V16.8332H11.2873C11.1425 16.3076 10.8296 15.8439 10.3965 15.5129C9.96338 15.1819 9.43381 15.0017 8.88867 14.9999ZM8.88867 18.6665C8.65792 18.6665 8.43236 18.5981 8.2405 18.4699C8.04864 18.3417 7.89911 18.1595 7.81081 17.9463C7.72251 17.7331 7.6994 17.4986 7.74442 17.2722C7.78943 17.0459 7.90055 16.8381 8.06371 16.6749C8.22687 16.5117 8.43475 16.4006 8.66106 16.3556C8.88737 16.3106 9.12195 16.3337 9.33513 16.422C9.54831 16.5103 9.73052 16.6598 9.85871 16.8517C9.98691 17.0435 10.0553 17.2691 10.0553 17.4999C10.0548 17.8091 9.93172 18.1055 9.71304 18.3242C9.49436 18.5429 9.19792 18.666 8.88867 18.6665Z" fill="#5D5A6D"/>
</g>
</g>
</svg>
