<svg width="20" height="20" viewBox="0 0 20 20" fill="none" xmlns="http://www.w3.org/2000/svg">
<g id="Icons">
<path id="Vector" d="M13.8891 4.44461H13.3335V3.88905C13.3335 3.58238 13.0852 3.3335 12.7779 3.3335C12.4707 3.3335 12.2224 3.58238 12.2224 3.88905V4.44461H7.77794V3.88905C7.77794 3.58238 7.52961 3.3335 7.22238 3.3335C6.91516 3.3335 6.66683 3.58238 6.66683 3.88905V4.44461H6.11127C4.57961 4.44461 3.3335 5.69072 3.3335 7.22238V13.8891C3.3335 15.4207 4.57961 16.6668 6.11127 16.6668H13.8891C15.4207 16.6668 16.6668 15.4207 16.6668 13.8891V7.22238C16.6668 5.69072 15.4207 4.44461 13.8891 4.44461ZM6.11127 5.55572H13.8891C14.8079 5.55572 15.5557 6.3035 15.5557 7.22238V7.77794H4.44461V7.22238C4.44461 6.3035 5.19238 5.55572 6.11127 5.55572ZM13.8891 15.5557H6.11127C5.19238 15.5557 4.44461 14.8079 4.44461 13.8891V8.88905H15.5557V13.8891C15.5557 14.8079 14.8079 15.5557 13.8891 15.5557ZM13.8891 11.1113C13.8891 11.4179 13.6407 11.6668 13.3335 11.6668H6.66683C6.35961 11.6668 6.11127 11.4179 6.11127 11.1113C6.11127 10.8046 6.35961 10.5557 6.66683 10.5557H13.3335C13.6407 10.5557 13.8891 10.8046 13.8891 11.1113ZM10.0002 13.3335C10.0002 13.6402 9.75183 13.8891 9.44461 13.8891H6.66683C6.35961 13.8891 6.11127 13.6402 6.11127 13.3335C6.11127 13.0268 6.35961 12.7779 6.66683 12.7779H9.44461C9.75183 12.7779 10.0002 13.0268 10.0002 13.3335Z" fill="#5D5A6D"/>
</g>
</svg>
