<svg width="15" height="14" viewBox="0 0 15 14" fill="none" xmlns="http://www.w3.org/2000/svg">
<g id="Icons">
<path id="Vector" d="M8.36062 12.726C9.88575 11.3837 12.5991 8.6415 12.5991 6.125C12.5991 4.73261 12.046 3.39726 11.0614 2.41269C10.0769 1.42812 8.74151 0.875 7.34912 0.875C5.95673 0.875 4.62138 1.42812 3.63681 2.41269C2.65224 3.39726 2.09912 4.73261 2.09912 6.125C2.09912 8.6415 4.81162 11.3837 6.33762 12.726C6.61597 12.9744 6.97602 13.1118 7.34912 13.1118C7.72222 13.1118 8.08227 12.9744 8.36062 12.726ZM5.59912 6.125C5.59912 5.66087 5.7835 5.21575 6.11168 4.88756C6.43987 4.55937 6.88499 4.375 7.34912 4.375C7.81325 4.375 8.25837 4.55937 8.58656 4.88756C8.91475 5.21575 9.09912 5.66087 9.09912 6.125C9.09912 6.58913 8.91475 7.03425 8.58656 7.36244C8.25837 7.69063 7.81325 7.875 7.34912 7.875C6.88499 7.875 6.43987 7.69063 6.11168 7.36244C5.7835 7.03425 5.59912 6.58913 5.59912 6.125Z" fill="#5D5A6D"/>
</g>
</svg>
