<svg width="40" height="40" viewBox="0 0 40 40" fill="none" xmlns="http://www.w3.org/2000/svg">
<g id="Icons">
<path id="Vector" d="M14.9998 21.1112C14.0109 21.1112 13.0442 20.8179 12.222 20.2685C11.3997 19.7191 10.7589 18.9382 10.3804 18.0246C10.002 17.111 9.90298 16.1056 10.0959 15.1357C10.2888 14.1658 10.765 13.2749 11.4643 12.5757C12.1636 11.8764 13.0545 11.4002 14.0244 11.2073C14.9943 11.0143 15.9996 11.1134 16.9133 11.4918C17.8269 11.8702 18.6078 12.5111 19.1572 13.3333C19.7066 14.1556 19.9998 15.1223 19.9998 16.1112C19.9984 17.4368 19.4711 18.7077 18.5337 19.6451C17.5964 20.5825 16.3255 21.1097 14.9998 21.1112ZM14.9998 13.3334C14.4504 13.3334 13.9134 13.4963 13.4566 13.8016C12.9998 14.1068 12.6437 14.5406 12.4335 15.0482C12.2233 15.5558 12.1683 16.1143 12.2754 16.6531C12.3826 17.1919 12.6472 17.6869 13.0357 18.0754C13.4241 18.4639 13.9191 18.7284 14.4579 18.8356C14.9968 18.9428 15.5553 18.8878 16.0628 18.6775C16.5704 18.4673 17.0042 18.1112 17.3095 17.6544C17.6147 17.1976 17.7776 16.6606 17.7776 16.1112C17.7776 15.3745 17.485 14.6679 16.964 14.147C16.4431 13.6261 15.7365 13.3334 14.9998 13.3334ZM23.3332 32.2223V31.6667C23.3332 29.4566 22.4552 27.337 20.8924 25.7742C19.3296 24.2114 17.21 23.3334 14.9998 23.3334C12.7897 23.3334 10.6701 24.2114 9.10728 25.7742C7.54448 27.337 6.6665 29.4566 6.6665 31.6667L6.6665 32.2223C6.6665 32.517 6.78357 32.7996 6.99194 33.008C7.20031 33.2164 7.48293 33.3334 7.77761 33.3334C8.0723 33.3334 8.35492 33.2164 8.56329 33.008C8.77166 32.7996 8.88873 32.517 8.88873 32.2223V31.6667C8.88873 30.046 9.53257 28.4916 10.6786 27.3455C11.8247 26.1995 13.3791 25.5556 14.9998 25.5556C16.6206 25.5556 18.175 26.1995 19.321 27.3455C20.4671 28.4916 21.1109 30.046 21.1109 31.6667V32.2223C21.1109 32.517 21.228 32.7996 21.4364 33.008C21.6448 33.2164 21.9274 33.3334 22.2221 33.3334C22.5167 33.3334 22.7994 33.2164 23.0077 33.008C23.2161 32.7996 23.3332 32.517 23.3332 32.2223ZM33.3332 26.6667C33.3331 25.1653 32.8985 23.6959 32.0817 22.436C31.265 21.1762 30.101 20.1796 28.7303 19.5667C27.3597 18.9538 25.8409 18.7507 24.3573 18.982C22.8738 19.2133 21.4889 19.869 20.3698 20.8701C20.2596 20.967 20.1696 21.0847 20.1051 21.2166C20.0406 21.3485 20.0029 21.4918 19.9941 21.6383C19.9854 21.7848 20.0057 21.9316 20.054 22.0702C20.1023 22.2088 20.1776 22.3365 20.2755 22.4459C20.3734 22.5552 20.492 22.6441 20.6244 22.7074C20.7569 22.7706 20.9005 22.807 21.0471 22.8144C21.1937 22.8218 21.3403 22.8001 21.4785 22.7506C21.6166 22.701 21.7436 22.6246 21.8521 22.5256C22.6514 21.8108 23.6407 21.3425 24.7003 21.1775C25.7599 21.0124 26.8447 21.1576 27.8236 21.5954C28.8026 22.0333 29.6339 22.7451 30.2172 23.645C30.8005 24.5449 31.1109 25.5943 31.1109 26.6667C31.1109 26.9614 31.228 27.2441 31.4364 27.4524C31.6448 27.6608 31.9274 27.7779 32.2221 27.7779C32.5167 27.7779 32.7994 27.6608 33.0077 27.4524C33.2161 27.2441 33.3332 26.9614 33.3332 26.6667ZM26.1109 16.6667C25.122 16.6667 24.1553 16.3735 23.3331 15.8241C22.5109 15.2747 21.87 14.4938 21.4915 13.5802C21.1131 12.6665 21.0141 11.6612 21.207 10.6913C21.3999 9.72139 21.8762 8.83048 22.5754 8.13122C23.2747 7.43195 24.1656 6.95575 25.1355 6.76282C26.1054 6.5699 27.1107 6.66891 28.0244 7.04735C28.938 7.42579 29.7189 8.06665 30.2683 8.8889C30.8177 9.71114 31.1109 10.6778 31.1109 11.6667C31.1095 12.9924 30.5822 14.2633 29.6449 15.2007C28.7075 16.138 27.4366 16.6653 26.1109 16.6667ZM26.1109 8.88897C25.5616 8.88897 25.0245 9.05189 24.5677 9.35711C24.1109 9.66234 23.7549 10.0962 23.5446 10.6037C23.3344 11.1113 23.2794 11.6698 23.3865 12.2087C23.4937 12.7475 23.7583 13.2425 24.1468 13.6309C24.5352 14.0194 25.0302 14.284 25.569 14.3912C26.1079 14.4983 26.6664 14.4433 27.174 14.2331C27.6815 14.0228 28.1154 13.6668 28.4206 13.21C28.7258 12.7532 28.8887 12.2161 28.8887 11.6667C28.8887 10.93 28.5961 10.2235 28.0751 9.70256C27.5542 9.18163 26.8477 8.88897 26.1109 8.88897Z" fill="#CC6F2A"/>
</g>
</svg>
