<svg width="16" height="16" viewBox="0 0 16 16" fill="none" xmlns="http://www.w3.org/2000/svg">
<g id="fi-rs-thumbtack" clip-path="url(#clip0_1186_1566)">
<path id="Vector" d="M6.04556 10.8983L9.31222 14.165L9.78356 13.6936C10.4351 13.0398 10.9053 12.2277 11.1478 11.3371C11.3904 10.4466 11.3969 9.50818 11.1669 8.61429L11.0029 7.94762L12.3936 6.55696L12.5382 6.70162C12.8751 7.04689 13.3226 7.26277 13.8025 7.31151C14.2824 7.36026 14.7642 7.23877 15.1636 6.96829C15.4003 6.7996 15.5974 6.58133 15.7412 6.32868C15.885 6.07603 15.972 5.79508 15.9961 5.50538C16.0202 5.21569 15.9809 4.92422 15.8808 4.65127C15.7808 4.37833 15.6225 4.13047 15.4169 3.92496L12.1336 0.63629C11.7967 0.291024 11.3492 0.0751468 10.8693 0.026401C10.3894 -0.0223448 9.90763 0.099143 9.50822 0.369624C9.27148 0.538312 9.07435 0.756582 8.93057 1.00923C8.78679 1.26188 8.69981 1.54284 8.6757 1.83253C8.65158 2.12223 8.69091 2.4137 8.79094 2.68664C8.89097 2.95959 9.04929 3.20745 9.25489 3.41296L9.45022 3.60829L8.05689 5.00029L7.40022 4.83896C6.50481 4.6071 5.56444 4.61255 4.67177 4.85478C3.77911 5.097 2.96496 5.56763 2.30956 6.22029L1.83822 6.69162L5.10489 9.95496L0.195557 14.8623L1.13822 15.805L6.04556 10.8983ZM7.07156 6.13362L8.47156 6.47629L11.3382 3.60962L10.1956 2.47162C10.1265 2.40276 10.0734 2.31959 10.0401 2.22798C10.0067 2.13637 9.99377 2.03856 10.0023 1.94142C10.0108 1.84429 10.0405 1.75021 10.0894 1.66581C10.1382 1.58142 10.2049 1.50876 10.2849 1.45296C10.4271 1.36684 10.5947 1.33242 10.7594 1.35549C10.9241 1.37857 11.0758 1.45773 11.1889 1.57962L14.4716 4.86229C14.5406 4.93116 14.5937 5.01432 14.6271 5.10593C14.6605 5.19754 14.6733 5.29536 14.6648 5.39249C14.6563 5.48962 14.6266 5.5837 14.5778 5.6681C14.5289 5.7525 14.4622 5.82516 14.3822 5.88096C14.24 5.96707 14.0724 6.0015 13.9077 5.97842C13.743 5.95535 13.5913 5.87619 13.4782 5.75429L12.3909 4.66696L9.52422 7.53362L9.86956 8.94096C10.015 9.50117 10.0367 10.0863 9.93308 10.6558C9.82946 11.2252 9.60304 11.7652 9.26956 12.2383L3.76422 6.73362C4.23868 6.39906 4.78041 6.17205 5.35164 6.06842C5.92286 5.96479 6.50982 5.98704 7.07156 6.13362Z" fill="#4A27D5"/>
</g>
<defs>
<clipPath id="clip0_1186_1566">
<rect width="16" height="16" fill="white"/>
</clipPath>
</defs>
</svg>
