<svg width="18" height="18" viewBox="0 0 18 18" fill="none" xmlns="http://www.w3.org/2000/svg">
<g id="Icons">
<path id="Vector" d="M14.7508 6.25351C14.6711 6.17318 14.5763 6.10942 14.4719 6.06591C14.3674 6.0224 14.2554 6 14.1423 6C14.0291 6 13.9171 6.0224 13.8127 6.06591C13.7082 6.10942 13.6134 6.17318 13.5338 6.25351L9.6085 10.1788C9.52883 10.2591 9.43404 10.3229 9.3296 10.3664C9.22516 10.4099 9.11314 10.4323 9 10.4323C8.88686 10.4323 8.77484 10.4099 8.6704 10.3664C8.56596 10.3229 8.47117 10.2591 8.3915 10.1788L4.46623 6.25351C4.38655 6.17318 4.29176 6.10942 4.18732 6.06591C4.08289 6.0224 3.97087 6 3.85772 6C3.74458 6 3.63256 6.0224 3.52813 6.06591C3.42369 6.10942 3.3289 6.17318 3.24922 6.25351C3.0896 6.41409 3 6.63131 3 6.85773C3 7.08415 3.0896 7.30137 3.24922 7.46195L7.18306 11.3958C7.66515 11.8773 8.31865 12.1477 9 12.1477C9.68135 12.1477 10.3348 11.8773 10.8169 11.3958L14.7508 7.46195C14.9104 7.30137 15 7.08415 15 6.85773C15 6.63131 14.9104 6.41409 14.7508 6.25351Z" fill="#1E1E25"/>
</g>
</svg>
