<svg width="23" height="22" viewBox="0 0 23 22" fill="none" xmlns="http://www.w3.org/2000/svg">
<g id="Icons">
<path id="Vector" d="M11.4998 3.66675C10.0494 3.66675 8.63162 4.09684 7.42566 4.90264C6.2197 5.70843 5.27977 6.85374 4.72472 8.19374C4.16968 9.53373 4.02446 11.0082 4.30742 12.4307C4.59037 13.8533 5.28881 15.1599 6.31439 16.1855C7.33997 17.2111 8.64665 17.9095 10.0692 18.1925C11.4917 18.4755 12.9662 18.3302 14.3062 17.7752C15.6462 17.2202 16.7915 16.2802 17.5973 15.0743C18.4031 13.8683 18.8332 12.4505 18.8332 11.0001C18.8311 9.05581 18.0578 7.19177 16.683 5.81695C15.3082 4.44214 13.4441 3.66885 11.4998 3.66675V3.66675ZM11.4998 15.889C11.379 15.889 11.2608 15.8531 11.1603 15.786C11.0598 15.7188 10.9815 15.6234 10.9352 15.5117C10.889 15.4001 10.8769 15.2772 10.9005 15.1586C10.924 15.0401 10.9823 14.9312 11.0677 14.8457C11.1532 14.7603 11.2621 14.7021 11.3806 14.6785C11.4992 14.6549 11.622 14.667 11.7337 14.7133C11.8454 14.7595 11.9408 14.8378 12.008 14.9383C12.0751 15.0388 12.1109 15.157 12.1109 15.2779C12.1109 15.4399 12.0466 15.5954 11.932 15.71C11.8174 15.8246 11.6619 15.889 11.4998 15.889ZM12.6793 11.3093C12.4989 11.4221 12.3515 11.5803 12.2517 11.7682C12.1519 11.956 12.1034 12.1668 12.1109 12.3794V12.8334C12.1109 12.9955 12.0466 13.1509 11.932 13.2655C11.8174 13.3801 11.6619 13.4445 11.4998 13.4445C11.3378 13.4445 11.1823 13.3801 11.0677 13.2655C10.9531 13.1509 10.8887 12.9955 10.8887 12.8334V12.3794C10.8797 11.9482 10.9862 11.5224 11.1973 11.1463C11.4083 10.7702 11.7162 10.4574 12.0889 10.2405C12.3147 10.1161 12.4954 9.92355 12.6052 9.69031C12.7149 9.45707 12.7482 9.1951 12.7001 8.94186C12.6524 8.70059 12.534 8.479 12.3598 8.30538C12.1857 8.13176 11.9637 8.014 11.7223 7.96714C11.5461 7.93453 11.3649 7.94105 11.1916 7.98624C11.0182 8.03143 10.8569 8.11418 10.719 8.22864C10.5812 8.3431 10.4702 8.48646 10.3939 8.64857C10.3176 8.81068 10.2779 8.98758 10.2776 9.16675C10.2776 9.32882 10.2132 9.48426 10.0986 9.59887C9.98402 9.71347 9.82858 9.77786 9.66651 9.77786C9.50443 9.77786 9.34899 9.71347 9.23439 9.59887C9.11978 9.48426 9.05539 9.32882 9.05539 9.16675C9.05555 8.73561 9.16972 8.31219 9.38634 7.93942C9.60296 7.56666 9.91432 7.25782 10.2888 7.04423C10.6633 6.83064 11.0877 6.7199 11.5188 6.72324C11.9499 6.72659 12.3725 6.84389 12.7436 7.06327C13.1148 7.28264 13.4213 7.59627 13.6321 7.97235C13.8429 8.34843 13.9505 8.77358 13.944 9.20466C13.9375 9.63575 13.817 10.0574 13.5949 10.427C13.3728 10.7965 13.0569 11.1007 12.6793 11.3087V11.3093Z" fill="#4A27D5"/>
</g>
</svg>
