<svg width="18" height="18" viewBox="0 0 18 18" fill="none" xmlns="http://www.w3.org/2000/svg">
<g id="Icons">
<path id="Vector" d="M11.3959 7.18313L7.46197 3.24923C7.30139 3.0896 7.08417 3 6.85774 3C6.63132 3 6.4141 3.0896 6.25352 3.24923C6.17319 3.3289 6.10943 3.42369 6.06591 3.52813C6.0224 3.63257 6 3.7446 6 3.85774C6 3.97088 6.0224 4.0829 6.06591 4.18734C6.10943 4.29179 6.17319 4.38658 6.25352 4.46625L10.196 8.39159C10.2763 8.47126 10.3401 8.56605 10.3836 8.67049C10.4271 8.77493 10.4495 8.88696 10.4495 9.0001C10.4495 9.11324 10.4271 9.22526 10.3836 9.3297C10.3401 9.43414 10.2763 9.52894 10.196 9.60861L6.25352 13.5339C6.09213 13.6942 6.00101 13.912 6.00021 14.1394C5.9994 14.3669 6.08898 14.5853 6.24923 14.7467C6.40948 14.9081 6.62728 14.9992 6.85471 15C7.08215 15.0008 7.30058 14.9112 7.46197 14.751L11.3959 10.8171C11.8774 10.335 12.1478 9.68146 12.1478 9.0001C12.1478 8.31873 11.8774 7.66523 11.3959 7.18313Z" fill="#F6F6FA"/>
</g>
</svg>
