<svg width="26" height="26" viewBox="0 0 26 26" fill="none" xmlns="http://www.w3.org/2000/svg">
<path id="Vector" d="M25.9987 13.0006C25.9987 5.82053 20.1782 0 12.9981 0C5.81793 0 0 5.82053 0 13.0006C0 20.1795 5.81923 26 12.9994 26C20.1795 26 26 20.1795 26 13.0006H25.9987ZM7.47648 10.401C7.46773 10.1824 7.50324 9.9642 7.58088 9.7596C7.65852 9.555 7.7767 9.3682 7.92831 9.21039C8.07993 9.05259 8.26186 8.92704 8.46319 8.84128C8.66452 8.75551 8.8811 8.71131 9.09994 8.71131C9.31877 8.71131 9.53535 8.75551 9.73668 8.84128C9.93801 8.92704 10.1199 9.05259 10.2716 9.21039C10.4232 9.3682 10.5413 9.555 10.619 9.7596C10.6966 9.9642 10.7321 10.1824 10.7234 10.401C10.7114 10.8238 10.5351 11.2253 10.2318 11.5201C9.92852 11.8149 9.52224 11.9798 9.09929 11.9798C8.67633 11.9798 8.27005 11.8149 7.96677 11.5201C7.6635 11.2253 7.48714 10.8238 7.47518 10.401H7.47648ZM15.2753 10.401C15.2666 10.1824 15.3021 9.9642 15.3797 9.7596C15.4574 9.555 15.5755 9.3682 15.7271 9.21039C15.8788 9.05259 16.0607 8.92704 16.262 8.84128C16.4633 8.75551 16.6799 8.71131 16.8988 8.71131C17.1176 8.71131 17.3342 8.75551 17.5355 8.84128C17.7368 8.92704 17.9188 9.05259 18.0704 9.21039C18.222 9.3682 18.3402 9.555 18.4178 9.7596C18.4955 9.9642 18.531 10.1824 18.5222 10.401C18.5103 10.8238 18.3339 11.2253 18.0306 11.5201C17.7274 11.8149 17.3211 11.9798 16.8981 11.9798C16.4752 11.9798 16.0689 11.8149 15.7656 11.5201C15.4623 11.2253 15.286 10.8238 15.274 10.401H15.2753ZM17.8723 15.5977H18.6522C18.9107 15.5977 19.1587 15.7004 19.3415 15.8832C19.5243 16.066 19.6271 16.314 19.6271 16.5725C19.6271 16.8311 19.5243 17.079 19.3415 17.2618C19.1587 17.4447 18.9107 17.5474 18.6522 17.5474H17.8723C17.069 17.5474 16.1345 17.7553 15.2753 18.0907C14.4057 18.4286 13.7194 18.855 13.362 19.2111C13.2727 19.3069 13.1651 19.3837 13.0455 19.437C12.926 19.4903 12.7969 19.5189 12.666 19.5212C12.5351 19.5236 12.4051 19.4995 12.2837 19.4504C12.1623 19.4014 12.052 19.3284 11.9595 19.2359C11.8669 19.1433 11.7939 19.033 11.7449 18.9116C11.6958 18.7903 11.6718 18.6602 11.6741 18.5293C11.6764 18.3984 11.705 18.2694 11.7583 18.1498C11.8116 18.0302 11.8884 17.9226 11.9842 17.8333C12.6016 17.2146 13.5596 16.6661 14.5695 16.2736C15.5886 15.8758 16.7662 15.5977 17.8723 15.5977Z" fill="#B8BDCC"/>
</svg>
