<svg width="40" height="40" viewBox="0 0 40 40" fill="none" xmlns="http://www.w3.org/2000/svg">
<g id="Icons">
<path id="Vector" d="M27.7776 8.88897H26.6665V7.77786C26.6665 7.16453 26.1698 6.66675 25.5554 6.66675C24.9409 6.66675 24.4443 7.16453 24.4443 7.77786V8.88897H15.5554V7.77786C15.5554 7.16453 15.0587 6.66675 14.4443 6.66675C13.8298 6.66675 13.3332 7.16453 13.3332 7.77786V8.88897H12.2221C9.15873 8.88897 6.6665 11.3812 6.6665 14.4445V27.7779C6.6665 30.8412 9.15873 33.3334 12.2221 33.3334H27.7776C30.8409 33.3334 33.3332 30.8412 33.3332 27.7779V14.4445C33.3332 11.3812 30.8409 8.88897 27.7776 8.88897ZM12.2221 11.1112H27.7776C29.6154 11.1112 31.1109 12.6067 31.1109 14.4445V15.5556H8.88873V14.4445C8.88873 12.6067 10.3843 11.1112 12.2221 11.1112ZM27.7776 31.1112H12.2221C10.3843 31.1112 8.88873 29.6156 8.88873 27.7779V17.7779H31.1109V27.7779C31.1109 29.6156 29.6154 31.1112 27.7776 31.1112ZM27.7776 22.2223C27.7776 22.8356 27.2809 23.3334 26.6665 23.3334H13.3332C12.7187 23.3334 12.2221 22.8356 12.2221 22.2223C12.2221 21.609 12.7187 21.1112 13.3332 21.1112H26.6665C27.2809 21.1112 27.7776 21.609 27.7776 22.2223ZM19.9998 26.6667C19.9998 27.2801 19.5032 27.7779 18.8887 27.7779H13.3332C12.7187 27.7779 12.2221 27.2801 12.2221 26.6667C12.2221 26.0534 12.7187 25.5556 13.3332 25.5556H18.8887C19.5032 25.5556 19.9998 26.0534 19.9998 26.6667Z" fill="#4A27D5"/>
</g>
</svg>
