<svg width="24" height="24" viewBox="0 0 24 24" fill="none" xmlns="http://www.w3.org/2000/svg">
<g id="Icons">
<path id="Open Eye" d="M9.16207 12.0001C9.16207 12.6743 9.45077 13.3209 9.96466 13.7977C10.4786 14.2744 11.1755 14.5423 11.9023 14.5423C12.629 14.5423 13.326 14.2744 13.8399 13.7977C14.3538 13.3209 14.6425 12.6743 14.6425 12.0001C14.6425 11.3259 14.3538 10.6793 13.8399 10.2025C13.326 9.72577 12.629 9.45794 11.9023 9.45794C11.1755 9.45794 10.4786 9.72577 9.96466 10.2025C9.45077 10.6793 9.16207 11.3259 9.16207 12.0001ZM22.5255 11.4145C20.2061 6.88173 16.7001 4.60059 12.0002 4.60059C7.29774 4.60059 3.79418 6.88173 1.47478 11.4168C1.38175 11.5995 1.3335 11.7991 1.3335 12.0012C1.3335 12.2034 1.38175 12.403 1.47478 12.5857C3.79418 17.1185 7.30019 19.3996 12.0002 19.3996C16.7026 19.3996 20.2061 17.1185 22.5255 12.5834C22.7139 12.2157 22.7139 11.789 22.5255 11.4145ZM11.9023 15.9949C9.52417 15.9949 7.59623 14.2063 7.59623 12.0001C7.59623 9.79387 9.52417 8.00527 11.9023 8.00527C14.2804 8.00527 16.2084 9.79387 16.2084 12.0001C16.2084 14.2063 14.2804 15.9949 11.9023 15.9949Z" fill="#5D5A6D"/>
</g>
</svg>
