<svg width="26" height="26" viewBox="0 0 26 26" fill="none" xmlns="http://www.w3.org/2000/svg">
<path id="Vector" d="M13 0C5.82098 0 0 5.82098 0 13C0 20.179 5.82098 26 13 26C20.179 26 26 20.179 26 13C26 5.82098 20.179 0 13 0ZM6.5 10.3594C6.50744 9.99489 6.65746 9.64784 6.91786 9.3927C7.17826 9.13756 7.5283 8.99466 7.89286 8.99466C8.25742 8.99466 8.60745 9.13756 8.86786 9.3927C9.12826 9.64784 9.27827 9.99489 9.28572 10.3594C9.27827 10.7239 9.12826 11.0709 8.86786 11.326C8.60745 11.5812 8.25742 11.7241 7.89286 11.7241C7.5283 11.7241 7.17826 11.5812 6.91786 11.326C6.65746 11.0709 6.50744 10.7239 6.5 10.3594ZM13 18.2522C10.519 18.2522 8.48482 16.2993 8.35714 13.8531C8.35557 13.8217 8.36041 13.7902 8.37137 13.7607C8.38233 13.7312 8.39918 13.7042 8.42089 13.6814C8.44261 13.6586 8.46873 13.6405 8.49768 13.6281C8.52663 13.6157 8.5578 13.6093 8.58929 13.6094H9.98505C10.1069 13.6094 10.2114 13.7022 10.2201 13.8241C10.3304 15.2605 11.5346 16.3951 13 16.3951C14.4654 16.3951 15.6725 15.2605 15.7799 13.8241C15.7886 13.7022 15.8931 13.6094 16.015 13.6094H17.4107C17.4422 13.6093 17.4734 13.6157 17.5023 13.6281C17.5313 13.6405 17.5574 13.6586 17.5791 13.6814C17.6008 13.7042 17.6177 13.7312 17.6286 13.7607C17.6396 13.7902 17.6444 13.8217 17.6429 13.8531C17.5152 16.2993 15.481 18.2522 13 18.2522ZM18.1071 11.7522C17.7427 11.7448 17.3956 11.5948 17.1405 11.3344C16.8853 11.074 16.7424 10.7239 16.7424 10.3594C16.7424 9.99481 16.8853 9.64478 17.1405 9.38438C17.3956 9.12397 17.7427 8.97396 18.1071 8.96652C18.4716 8.97396 18.8187 9.12397 19.0738 9.38438C19.329 9.64478 19.4719 9.99481 19.4719 10.3594C19.4719 10.7239 19.329 11.074 19.0738 11.3344C18.8187 11.5948 18.4716 11.7448 18.1071 11.7522Z" fill="#4A27D5"/>
</svg>
