<svg width="40" height="40" viewBox="0 0 40 40" fill="none" xmlns="http://www.w3.org/2000/svg">
<g id="Icons">
<path id="Vector" d="M19.9998 33.3334C12.6476 33.3334 6.6665 27.3523 6.6665 20.0001C6.6665 12.6479 12.6476 6.66675 19.9998 6.66675C27.3521 6.66675 33.3332 12.6479 33.3332 20.0001C33.3332 27.3523 27.3521 33.3334 19.9998 33.3334ZM19.9998 8.88897C13.8732 8.88897 8.88873 13.8734 8.88873 20.0001C8.88873 26.1267 13.8732 31.1112 19.9998 31.1112C26.1265 31.1112 31.1109 26.1267 31.1109 20.0001C31.1109 13.8734 26.1265 8.88897 19.9998 8.88897ZM25.5554 20.0001C25.5554 19.3856 25.0587 18.889 24.4443 18.889H21.1109V13.3334C21.1109 12.719 20.6132 12.2223 19.9998 12.2223C19.3865 12.2223 18.8887 12.719 18.8887 13.3334V20.0001C18.8887 20.6145 19.3865 21.1112 19.9998 21.1112H24.4443C25.0587 21.1112 25.5554 20.6145 25.5554 20.0001Z" fill="#FF61AD"/>
</g>
</svg>
