<svg width="12" height="3" viewBox="0 0 12 3" fill="none" xmlns="http://www.w3.org/2000/svg">
<g id="Group">
<path id="Vector" d="M10.75 2.49998C11.4403 2.49998 12 1.94034 12 1.24999C12 0.559639 11.4403 0 10.75 0C10.0596 0 9.5 0.559639 9.5 1.24999C9.5 1.94034 10.0596 2.49998 10.75 2.49998Z" fill="#374957"/>
<path id="Vector_2" d="M5.99999 2.49998C6.69034 2.49998 7.24998 1.94034 7.24998 1.24999C7.24998 0.559639 6.69034 0 5.99999 0C5.30964 0 4.75 0.559639 4.75 1.24999C4.75 1.94034 5.30964 2.49998 5.99999 2.49998Z" fill="#374957"/>
<path id="Vector_3" d="M1.24999 2.49998C1.94034 2.49998 2.49998 1.94034 2.49998 1.24999C2.49998 0.559639 1.94034 0 1.24999 0C0.559641 0 0 0.559639 0 1.24999C0 1.94034 0.559641 2.49998 1.24999 2.49998Z" fill="#374957"/>
</g>
</svg>
