<svg width="18" height="18" viewBox="0 0 18 18" fill="none" xmlns="http://www.w3.org/2000/svg">
<g id="Icons">
<path id="Vector" d="M14.3845 7.64666C14.1501 7.37651 13.8603 7.15989 13.5349 7.01145C13.2095 6.86302 12.856 6.78624 12.4983 6.78631H10.5042L10.6721 5.76599C10.7316 5.40669 10.6599 5.03799 10.4701 4.72715C10.2803 4.41631 9.98516 4.18403 9.63841 4.07269C9.29166 3.96135 8.91644 3.97836 8.58119 4.12063C8.24594 4.26289 7.973 4.52092 7.81214 4.84766L6.85531 6.78631H5.49955C4.83687 6.78711 4.20156 7.05071 3.73298 7.51929C3.26439 7.98788 3.00079 8.62319 3 9.28587L3 11.7854C3.00079 12.4481 3.26439 13.0834 3.73298 13.552C4.20156 14.0206 4.83687 14.2842 5.49955 14.285H12.1484C12.75 14.2825 13.3307 14.0642 13.785 13.6697C14.2392 13.2752 14.5367 12.7307 14.6234 12.1354L14.9759 9.63581C15.0255 9.28123 14.9984 8.92014 14.8964 8.57696C14.7943 8.23378 14.6198 7.91652 14.3845 7.64666ZM3.99982 11.7854V9.28587C3.99982 8.88811 4.15783 8.50665 4.43908 8.2254C4.72034 7.94414 5.1018 7.78613 5.49955 7.78613H6.49938V13.2852H5.49955C5.1018 13.2852 4.72034 13.1271 4.43908 12.8459C4.15783 12.5646 3.99982 12.1832 3.99982 11.7854ZM13.9835 9.49533L13.6306 11.9949C13.579 12.3518 13.401 12.6784 13.129 12.9152C12.857 13.1519 12.509 13.2832 12.1484 13.2852H7.4992V7.65316C7.54631 7.61211 7.58531 7.5626 7.61418 7.50718L8.70848 5.29008C8.74952 5.21606 8.80754 5.15283 8.87777 5.10559C8.94799 5.05836 9.02843 5.02846 9.11246 5.01836C9.19649 5.00826 9.28172 5.01824 9.36115 5.04749C9.44057 5.07673 9.51192 5.12441 9.56933 5.1866C9.61844 5.24371 9.65435 5.31096 9.67448 5.38355C9.69462 5.45613 9.69848 5.53227 9.68581 5.60652L9.42185 7.20624C9.41027 7.27772 9.41435 7.35086 9.43381 7.4206C9.45328 7.49035 9.48766 7.55503 9.53459 7.61018C9.58151 7.66533 9.63985 7.70963 9.70558 7.74001C9.77131 7.77039 9.84286 7.78613 9.91527 7.78613H12.4983C12.713 7.78611 12.9251 7.83216 13.1205 7.92118C13.3158 8.01021 13.4897 8.14013 13.6305 8.30216C13.7714 8.46419 13.8757 8.65457 13.9366 8.86041C13.9975 9.06625 14.0135 9.28277 13.9835 9.49533Z" fill="#5D5A6D"/>
</g>
</svg>
